<svg width="24" height="25" viewBox="0 0 24 25" fill="none" xmlns="http://www.w3.org/2000/svg">
<path d="M16.9877 6.7611L11.8914 11.8574L6.79509 6.7611C6.56035 6.52635 6.18043 6.52635 5.94569 6.7611C5.71094 6.99585 5.71094 7.37576 5.94569 7.61051L11.042 12.7068L5.94569 17.8031C5.71094 18.0378 5.71094 18.4177 5.94569 18.6525C6.18043 18.8872 6.56035 18.8872 6.79509 18.6525L11.8914 13.5562L16.9877 18.6525C17.2224 18.8872 17.6023 18.8872 17.8371 18.6525C18.0718 18.4177 18.0718 18.0378 17.8371 17.8031L12.7408 12.7068L17.8371 7.61051C18.0718 7.37576 18.0718 6.99585 17.8371 6.7611C17.6023 6.52635 17.2224 6.52635 16.9877 6.7611Z" fill="black"/>
</svg>
