<svg width="31" height="31" viewBox="0 0 31 31" fill="none" xmlns="http://www.w3.org/2000/svg">
    <path d="M26.948 0.543945H3.52903C1.75531 0.543945 0.3125 1.98695 0.3125 3.76093V20.9187C0.3125 22.6925 1.75531 24.1355 3.52903 24.1355H10.951L13.4089 29.0522C13.8371 29.9086 14.5039 30.4 15.2384 30.4C15.9729 30.4 16.6398 29.9086 17.0679 29.0522L19.5261 24.1355H26.948C28.7215 24.1355 30.1643 22.6925 30.1643 20.9187V3.76093C30.1643 1.98695 28.7215 0.543945 26.948 0.543945V0.543945ZM28.4152 20.9187C28.4152 21.7278 27.757 22.3861 26.948 22.3861H18.9856C18.6542 22.3861 18.3516 22.5733 18.2033 22.8697L15.5035 28.2697C15.3947 28.4875 15.2924 28.5946 15.2384 28.6356C15.1844 28.5946 15.0822 28.4875 14.9733 28.2697L12.2736 22.8697C12.1255 22.5733 11.8226 22.3861 11.4915 22.3861H3.52903C2.71983 22.3861 2.06163 21.7278 2.06163 20.9187V3.76093C2.06163 2.95162 2.71983 2.29332 3.52903 2.29332H26.948C27.757 2.29332 28.4152 2.95162 28.4152 3.76093V20.9187Z" fill="black" />
</svg>