<svg width="15" height="15" viewBox="0 0 15 15" fill="none" xmlns="http://www.w3.org/2000/svg">
<path d="M12.8119 0.615967H1.82881C0.996964 0.615967 0.320312 1.29184 0.320312 2.12274V10.1591C0.320312 10.9899 0.996964 11.6658 1.82881 11.6658H5.30959L6.4623 13.9687C6.6631 14.3698 6.97585 14.6 7.32031 14.6C7.66478 14.6 7.97752 14.3698 8.17833 13.9687L9.33115 11.6658H12.8119C13.6437 11.6658 14.3203 10.9899 14.3203 10.1591V2.12274C14.3203 1.29184 13.6437 0.615967 12.8119 0.615967V0.615967ZM13.5 10.1591C13.5 10.5381 13.1913 10.8464 12.8119 10.8464H9.07768C8.92227 10.8464 8.78032 10.9341 8.71078 11.0729L7.44464 13.6022C7.39359 13.7042 7.34563 13.7544 7.32031 13.7736C7.295 13.7544 7.24704 13.7042 7.19598 13.6022L5.92984 11.0729C5.86041 10.9341 5.71835 10.8464 5.56305 10.8464H1.82881C1.44931 10.8464 1.14062 10.5381 1.14062 10.1591V2.12274C1.14062 1.74367 1.44931 1.43534 1.82881 1.43534H12.8119C13.1913 1.43534 13.5 1.74367 13.5 2.12274V10.1591Z" fill="black"/>
</svg>
