<svg width="18" height="15" viewBox="0 0 18 15" fill="none" xmlns="http://www.w3.org/2000/svg">
<path d="M16.0785 1.38777C15.2101 0.520302 14.0603 0.0461806 12.8332 0.0461806C11.6061 0.0461806 10.4529 0.523814 9.58442 1.39128L9.13085 1.84433L8.67025 1.38426C7.80179 0.51679 6.64502 0.0356445 5.41793 0.0356445C4.19435 0.0356445 3.04109 0.513278 2.17615 1.37723C1.30769 2.2447 0.829511 3.39664 0.833027 4.62233C0.833027 5.84802 1.31472 6.99645 2.18318 7.86391L8.78628 14.4595C8.8777 14.5508 9.00076 14.5999 9.1203 14.5999C9.23985 14.5999 9.36291 14.5543 9.45433 14.463L16.0715 7.87796C16.9399 7.01049 17.4181 5.85855 17.4181 4.63286C17.4216 3.40717 16.947 2.25523 16.0785 1.38777ZM15.4034 7.20717L9.1203 13.4585L2.85123 7.19663C2.16209 6.50828 1.78235 5.59515 1.78235 4.62233C1.78235 3.6495 2.15857 2.73638 2.84771 2.05154C3.53334 1.3667 4.4475 0.987399 5.41793 0.987399C6.39187 0.987399 7.30955 1.3667 7.99869 2.05505L8.79331 2.84876C8.97966 3.0349 9.27853 3.0349 9.46488 2.84876L10.2525 2.06207C10.9416 1.37372 11.8593 0.994423 12.8297 0.994423C13.8001 0.994423 14.7143 1.37372 15.4034 2.05856C16.0926 2.74692 16.4688 3.66004 16.4688 4.63286C16.4723 5.60569 16.0926 6.51881 15.4034 7.20717Z" fill="black"/>
</svg>
