<svg width="180" height="250" viewBox="0 0 18 25" fill="none" 
  xmlns="http://www.w3.org/2000/svg">
  <path d="M10.3504 8.55606L11.3313 8.28538C11.1622 7.64252 11.399 6.96582 11.974 6.59363C12.6844 6.15378 13.5976 6.35679 14.0712 7.03349C14.1727 7.20266 14.2403 7.37184 14.2741 7.54101L15.2551 7.338C15.1874 7.03349 15.0859 6.76281 14.9168 6.49213C14.5447 5.91693 14.0035 5.54475 13.327 5.40941C12.6844 5.27407 12.0079 5.40941 11.4328 5.74776C10.4857 6.35679 10.046 7.50718 10.3504 8.55606Z" fill="#231F20"/>
  <path d="M12.4126 3.27788L13.3259 2.83803C13.3259 2.83803 13.3259 2.80419 13.2921 2.80419C13.2244 2.63502 13.2244 2.43201 13.2921 2.26283C13.3597 2.09366 13.495 1.95832 13.6642 1.89065C14.0024 1.75531 14.4083 1.92448 14.5774 2.26283C14.5774 2.29667 14.6113 2.3305 14.6113 2.36434L15.626 2.16133C15.5922 2.05982 15.5922 1.99215 15.5245 1.89065C15.1525 1.01093 14.1715 0.604914 13.2921 0.9771C12.8862 1.14627 12.5479 1.48462 12.3788 1.89065C12.2097 2.29667 12.2097 2.77036 12.3788 3.17638C12.3788 3.21021 12.4126 3.24405 12.4126 3.27788Z" fill="#231F20"/>
  <path d="M4.49877 7.77794C4.46495 6.99973 5.0738 6.32303 5.85178 6.25536C6.62976 6.22153 7.30627 6.83056 7.37392 7.60876L8.38867 7.54109C8.32102 6.18769 7.17096 5.13881 5.81796 5.24031C4.46495 5.30798 3.45019 6.45837 3.51784 7.81177L4.49877 7.77794Z" fill="#231F20"/>
  <path d="M8.45617 4.36065C8.65912 4.19148 8.92972 4.12381 9.1665 4.15764C9.4371 4.19148 9.67388 4.32682 9.80918 4.52983C9.9783 4.73284 10.046 5.00352 10.0121 5.24036L11.0269 5.3757C11.0945 4.83434 10.9592 4.32682 10.621 3.9208C10.2827 3.51478 9.80918 3.2441 9.3018 3.17643C8.21939 3.04109 7.20464 3.81929 7.06934 4.90201L8.08409 5.03735C8.11792 4.73284 8.25322 4.49599 8.45617 4.36065Z" fill="#231F20"/>
  <path d="M17.9607 9.8757C17.7239 8.58997 16.4724 7.71026 15.1532 7.98094C14.6797 8.08244 14.2399 8.28545 13.9017 8.6238L14.612 9.33434C14.815 9.13133 15.0518 8.99599 15.3224 8.96215C16.0665 8.82681 16.8107 9.3005 16.946 10.0449C17.0813 10.7892 16.6077 11.5336 15.8636 11.669C15.7959 11.669 15.7283 11.7028 15.6606 11.7028H15.6268C15.5591 11.7028 15.4915 11.7028 15.4238 11.7028H2.97616C2.46878 11.5336 1.99522 11.0938 1.99522 10.4847C1.99522 9.8757 2.5026 9.40201 3.07763 9.40201C3.21293 9.40201 3.92326 9.50352 4.36299 9.84187L4.97184 9.02982C4.32916 8.55613 3.38206 8.38696 3.07763 8.38696C1.92757 8.38696 0.980469 9.33434 0.980469 10.4847C0.980469 11.7705 2.0967 12.684 3.17911 12.7855L5.78365 25H13.3267L15.965 12.7178C15.9989 12.7178 16.0327 12.7178 16.0327 12.7178C17.3519 12.4133 18.1975 11.1614 17.9607 9.8757ZM12.2781 12.7178L10.8574 23.9511H10.0794V12.7178H12.2781ZM4.19386 12.7178H5.88512L7.30578 23.9511H6.62928L4.19386 12.7178ZM8.32054 23.9511L6.89988 12.7178H9.06469V23.9511H8.48966H8.32054ZM12.5149 23.9511H11.8722L13.2928 12.7178H14.9503L12.5149 23.9511Z" fill="#231F20"/>
</svg>
