<svg width="15" height="14" viewBox="0 0 15 14" fill="none" xmlns="http://www.w3.org/2000/svg">
<path d="M0.697294 13.0933H0.558431C0.410326 13.0933 0.268287 13.0345 0.163561 12.9298C0.0588345 12.825 0 12.683 0 12.5349V8.4308C0 5.42905 2.44258 2.9861 5.44433 2.9861H7.31358V0.556931C7.31387 0.449258 7.34528 0.343964 7.40403 0.253732C7.46278 0.163499 7.54637 0.0921748 7.64472 0.0483496C7.74307 0.00452437 7.85199 -0.00993305 7.95837 0.00671851C8.06475 0.0233701 8.16404 0.0704205 8.2443 0.142203L14.7817 6.03439C14.8397 6.08675 14.8862 6.15072 14.9179 6.22217C14.9497 6.29361 14.9661 6.37093 14.9661 6.44912C14.9661 6.52731 14.9497 6.60463 14.9179 6.67607C14.8862 6.74751 14.8397 6.81149 14.7817 6.86385L8.24616 12.7564C8.16588 12.8282 8.06655 12.8753 7.96014 12.8919C7.85373 12.9085 7.74477 12.8941 7.64641 12.8502C7.54804 12.8063 7.46446 12.7349 7.40574 12.6446C7.34702 12.5544 7.31566 12.449 7.31544 12.3413V9.91064H4.82186C4.00291 9.91047 3.20698 10.1816 2.55847 10.6818C1.90996 11.1819 1.44543 11.8828 1.23748 12.6749C1.20648 12.7946 1.13662 12.9006 1.03886 12.9764C0.941096 13.0521 0.820959 13.0932 0.697294 13.0933ZM4.82186 8.79378H7.87201C8.02012 8.79378 8.16216 8.85262 8.26688 8.95734C8.37161 9.06207 8.43044 9.20411 8.43044 9.35221V11.0848L13.5736 6.44837L8.43044 1.81228V3.54453C8.43044 3.69264 8.37161 3.83468 8.26688 3.9394C8.16216 4.04413 8.02012 4.10297 7.87201 4.10297H5.44433C4.29694 4.10425 3.19692 4.56064 2.38563 5.372C1.57434 6.18336 1.11804 7.28342 1.11686 8.4308V10.529C1.56958 9.986 2.1361 9.54911 2.77634 9.24925C3.41657 8.9494 4.11489 8.79391 4.82186 8.79378Z" fill="black"/>
</svg>
