<svg width="14" height="17" viewBox="0 0 14 17" fill="none" xmlns="http://www.w3.org/2000/svg">
<path d="M13.9503 14.3169L12.7484 12.3134C12.1933 11.3887 11.9 10.3295 11.9 9.25151V7.49653C11.9 5.28094 10.4215 3.40698 8.39983 2.80284V1.54631C8.39983 0.774165 7.77191 0.14624 6.99976 0.14624C6.22762 0.14624 5.5997 0.774165 5.5997 1.54631V2.80284C3.57804 3.40698 2.09958 5.28094 2.09958 7.49653V9.25151C2.09958 10.3295 1.80626 11.388 1.25184 12.3127L0.0499042 14.3162C-0.0151984 14.4247 -0.0166093 14.5591 0.0457041 14.669C0.108017 14.7789 0.223522 14.8468 0.349527 14.8468H13.65C13.776 14.8468 13.8922 14.779 13.9545 14.6698C14.0169 14.5605 14.0148 14.4247 13.9503 14.3169Z" fill="black" fill-opacity="0.5"/>
<path d="M4.74023 14.7931C5.13505 15.6177 5.97088 16.1932 6.9446 16.1932C7.91831 16.1932 8.75418 15.6177 9.149 14.7931H4.74023Z" fill="black" fill-opacity="0.5"/>
</svg>
