<?xml version="1.0" encoding="iso-8859-1"?>
<!-- Generator: Adobe Illustrator 19.0.0, SVG Export Plug-In . SVG Version: 6.00 Build 0)  -->
<svg xmlns="http://www.w3.org/2000/svg" xmlns:xlink="http://www.w3.org/1999/xlink" version="1.1" id="Capa_1" x="0px" y="0px" viewBox="0 0 511.997 511.997" style="enable-background:new 0 0 511.997 511.997;" xml:space="preserve">
<path style="fill:#FDD7AD;" d="M146.979,72.917c-3.443,4.767-6.885,9.71-10.152,14.83c-2.737,4.237-5.473,8.563-8.121,13.065  l-0.088,0.088c-10.134,17.187-19.182,35.001-27.1,53.318c-4.502,10.328-8.651,20.833-12.447,31.337  c-1.412,3.619-2.648,7.327-3.884,10.946c-13.991,38.991-21.883,79.897-23.393,121.289c0,107.253,86.95,194.204,194.204,194.204  s194.204-86.95,194.204-194.204c-1.501-41.392-9.392-82.307-23.393-121.289c-1.236-3.531-2.472-7.15-3.796-10.681h-0.088  c-10.637-29.978-24.143-58.861-40.341-86.244c-5.111-8.518-10.478-16.772-16.084-24.637c-0.132-0.274-0.282-0.627-0.406-0.874  c0-0.088,0-0.088-0.088-0.177C334.668,30.369,296.887,0.003,256.192,0.003c-26.244,1.174-51.19,11.767-70.266,29.837  c-14.592,12.764-27.603,27.224-38.752,43.078H146.979z"/>
<path style="fill:#F0C419;" d="M136.21,94.809l-2.207-2.56c-1.854,2.737-3.531,5.65-5.296,8.563l-0.088,0.088  c-10.134,17.187-19.182,35.001-27.1,53.318c-4.502,10.328-8.651,20.833-12.447,31.337c-1.412,3.619-2.648,7.327-3.884,10.946  c-13.991,38.991-21.883,79.897-23.393,121.289c-0.062,46.927,16.905,92.282,47.756,127.645l0.088,0.088  c2.119,2.383,4.325,4.767,6.621,7.15c2.295,2.472,4.502,4.679,6.885,6.797l0.441-0.441c-17.655-52.965-6.621-83.861,8.827-101.515  c12.014-13.303,28.724-21.407,46.609-22.598c14.221-1.068,28.23-4.043,41.665-8.827l13.329-105.4c0-4.334-1.607-8.518-4.502-11.74  L136.21,94.809z"/>
<path style="fill:#2C3E50;" d="M440.58,21.983l-62.587,70.355c-3.619-6.003-7.503-11.74-11.476-17.39  c-0.177-0.265-0.265-0.618-0.441-0.883c0-0.088,0-0.088-0.088-0.177C334.651,30.369,296.869,0.003,256.175,0.003  c-26.244,1.174-51.19,11.767-70.266,29.837c-14.592,12.764-27.603,27.224-38.752,43.078h-0.177  c-3.443,4.767-6.885,9.71-10.152,14.83c-0.971,1.501-1.942,3.001-2.825,4.502L71.417,21.983  C26.273,54.865-0.306,107.459,0.003,163.31c-0.238,48.772,20.003,95.398,55.789,128.527c4.043,3.549,6.259,8.748,6.003,14.124  c-0.265,4.061-0.353,8.033-0.353,11.829c-0.053,41.966,13.612,82.793,38.929,116.257c1.677,2.207,3.443,4.414,5.12,6.621  c1.324,1.677,2.737,3.178,4.061,4.767c0.044,0,0.088,0.035,0.088,0.088l0,0c0.212,0.256,0.45,0.494,0.706,0.706  c1.765,2.03,3.708,4.149,5.65,6.179l0.265,0.265c2.295,2.472,4.502,4.679,6.885,6.797l0.441-0.441  c-17.655-52.965-6.621-83.861,8.827-101.515c12.014-13.303,28.724-21.407,46.609-22.598c14.221-1.068,28.23-4.043,41.665-8.827  v11.917c0,14.389,22.245,26.571,31.426,30.984c2.463,1.148,5.305,1.148,7.768,0c9.181-4.414,31.426-16.596,31.426-30.984v-11.917  c13.435,4.784,27.444,7.759,41.665,8.827c17.884,1.192,34.595,9.295,46.609,22.598c15.448,17.655,26.482,48.551,8.827,101.515  l0.265,0.265c39.114-36.66,61.262-87.895,61.174-141.504c0-3.619-0.088-7.415-0.265-11.299c-0.071-1.006-0.018-2.013,0.177-3.001  v-0.088c0.53-4.264,2.604-8.192,5.826-11.034c36.175-33.129,56.663-80.003,56.407-129.057  C512.312,107.459,485.732,54.865,440.58,21.983z"/>
<path style="fill:#F0C419;" d="M282.481,208.948c-2.895,3.222-4.502,7.406-4.502,11.74l13.329,105.4v11.917  c0,14.389-22.245,26.571-31.426,30.984c-2.463,1.148-5.305,1.148-7.768,0c-9.181-4.414-31.426-16.596-31.426-30.984v-11.917  l13.329-105.4c0-4.334-1.607-8.518-4.502-11.74L136.21,94.809l-2.207-2.56c0.883-1.501,1.854-3.001,2.825-4.502  c3.266-5.12,6.709-10.063,10.152-14.83h0.177c11.149-15.854,24.161-30.313,38.752-43.078c19.076-18.07,44.022-28.663,70.266-29.837  c40.694,0,78.476,30.366,109.813,73.886c0.088,0.088,0.088,0.088,0.088,0.177c0.177,0.265,0.265,0.618,0.441,0.883  c3.972,5.65,7.856,11.387,11.476,17.39l-2.207,2.472L282.481,208.948z"/>
<g>
	<path style="fill:#B0D3F0;" d="M230.487,248.318l-93.129-27.277c-4.679-1.289-9.587,1.086-11.476,5.561l-18.891,40.518   c-2.631,5.235-0.521,11.617,4.714,14.247c1.28,0.644,2.684,1.024,4.114,1.112h110.343L230.487,248.318z"/>
	<path style="fill:#B0D3F0;" d="M285.835,282.481h110.343c5.853-0.362,10.302-5.394,9.94-11.246   c-0.088-1.43-0.468-2.834-1.112-4.114l-18.891-40.518c-1.889-4.476-6.797-6.85-11.476-5.561l-93.129,27.277L285.835,282.481z"/>
</g>
<path style="fill:#2C2F38;" d="M317.79,441.374c-4.873,0-8.827-3.946-8.827-8.819c0,0,0,0,0-0.009  c0-6.223-20.109-17.655-52.965-17.655s-52.965,11.431-52.965,17.655c0,4.873-3.955,8.827-8.827,8.827s-8.827-3.955-8.827-8.827  c0-23.181,35.522-35.31,70.619-35.31s70.619,12.129,70.619,35.31C326.618,437.42,322.672,441.374,317.79,441.374  C317.799,441.374,317.79,441.374,317.79,441.374z"/>
<g>
</g>
<g>
</g>
<g>
</g>
<g>
</g>
<g>
</g>
<g>
</g>
<g>
</g>
<g>
</g>
<g>
</g>
<g>
</g>
<g>
</g>
<g>
</g>
<g>
</g>
<g>
</g>
<g>
</g>
</svg>
