<?xml version="1.0" encoding="iso-8859-1"?>
<!-- Generator: Adobe Illustrator 19.0.0, SVG Export Plug-In . SVG Version: 6.00 Build 0)  -->
<svg xmlns="http://www.w3.org/2000/svg" xmlns:xlink="http://www.w3.org/1999/xlink" version="1.1" id="Capa_1" x="0px" y="0px" viewBox="0 0 512 512" style="enable-background:new 0 0 512 512;" xml:space="preserve">
<path style="fill:#F0C419;" d="M147.416,72.916c-3.443,4.767-6.886,9.71-10.152,14.83c-2.737,4.237-5.473,8.563-8.121,13.065  l-0.088,0.088c-10.134,17.187-19.182,35.001-27.101,53.319c-4.502,10.328-8.651,20.833-12.447,31.338  c-1.412,3.619-2.648,7.327-3.884,10.946c-14.001,38.983-21.892,79.898-23.393,121.291C62.23,425.048,149.182,512,256.437,512  s194.207-86.952,194.207-194.207c-1.501-41.393-9.393-82.308-23.393-121.291c-1.236-3.531-2.472-7.15-3.796-10.681h-0.088  c-10.637-29.978-24.143-58.862-40.342-86.246c-5.111-8.519-10.478-16.772-16.084-24.638c-0.132-0.274-0.283-0.627-0.406-0.874  c0-0.088,0-0.088-0.088-0.177C335.109,30.367,297.326,0,256.631,0c-26.244,1.174-51.191,11.767-70.268,29.837  c-14.592,12.765-27.604,27.224-38.753,43.079H147.416z"/>
<path style="fill:#2C3E50;" d="M445.851,268.703c24.302-27.401,37.826-62.685,38.073-99.302  c-0.274-43.732-19.306-85.239-52.259-113.991l-9.366-8.439l-4.732,11.679c-6.841,16.817-20.763,29.758-38.038,35.337  c-3.293-5.305-6.647-10.514-10.108-15.519c-0.883-1.236-1.677-2.383-2.56-3.619c-0.088-0.265-0.265-0.53-0.353-0.794  c0-0.088,0-0.088-0.088-0.177c-6.4-8.969-13.321-17.549-20.745-25.688C318.936,18.891,288.658,0,256.614,0  c-26.244,1.174-51.191,11.767-70.268,29.837c-6.559,5.667-12.774,11.705-18.626,18.097c-7.212,7.91-13.93,16.252-20.127,24.982  h-0.177c-1.148,1.589-2.295,3.178-3.443,4.855c-2.295,3.266-4.502,6.532-6.709,9.975c-1.377,2.101-2.631,4.326-3.964,6.479  c-17.638-5.42-31.912-18.476-38.868-35.566L89.702,46.98l-9.357,8.43C47.382,84.162,28.35,125.67,28.076,169.401  c0.256,36.996,14.054,72.616,38.78,100.122c-1.254,7.415-2.313,14.636-3.046,21.61c-1.024,8.854-1.554,17.752-1.589,26.659  c-0.009,16.013,1.951,31.956,5.826,47.492l53.76-53.76c1.651-1.624,3.866-2.542,6.179-2.56h257.589  c2.313,0.018,4.529,0.936,6.179,2.56l53.142,53.142c3.849-15.325,5.773-31.073,5.738-46.874c-0.035-8.907-0.565-17.805-1.589-26.659  C448.287,283.939,447.184,276.401,445.851,268.703z"/>
<g>
	<path style="fill:#285680;" d="M450.644,317.793c0.035,15.801-1.889,31.55-5.738,46.874l-53.142-53.142   c-1.651-1.624-3.866-2.542-6.179-2.56H127.996c-2.313,0.018-4.529,0.936-6.179,2.56l-53.76,53.76   c-3.875-15.537-5.835-31.479-5.826-47.492c0.035-8.907,0.565-17.805,1.589-26.659c0.794-7.592,1.942-15.448,3.354-23.57   c4.273-23.684,10.293-47.025,18.008-69.826c0.177-0.441,0.265-0.794,0.441-1.236c3.266-9.622,6.886-19.332,10.77-28.954   c1.766-4.502,3.619-8.916,5.561-13.33c3.443-7.945,7.15-15.89,11.034-23.658c4.414-8.916,9.181-17.743,14.124-26.218   c3.266-5.65,6.621-11.211,10.152-16.596c2.207-3.443,4.414-6.709,6.709-9.975c1.148-1.677,2.295-3.266,3.443-4.855h0.177   c6.197-8.73,12.915-17.073,20.127-24.982c5.853-6.391,12.067-12.429,18.626-18.097C205.422,11.767,230.369,1.174,256.614,0   c32.044,0,62.323,18.891,89.07,48.199c7.415,8.139,14.345,16.719,20.745,25.688c0.088,0.088,0.088,0.088,0.088,0.177   c0.088,0.265,0.265,0.53,0.353,0.794c0.883,1.236,1.677,2.383,2.56,3.619c5.738,8.298,11.299,17.037,16.508,26.13   c4.855,8.298,9.445,16.949,13.771,25.688c6.091,12.182,11.679,24.602,16.772,37.252c3.884,9.622,7.503,19.244,10.77,28.954   c0.185,0.486,0.335,0.989,0.441,1.501c7.795,22.713,13.815,46.001,18.008,69.65v0.088c1.412,8.033,2.56,15.89,3.354,23.393   C450.079,299.988,450.609,308.886,450.644,317.793z"/>
	<path style="fill:#285680;" d="M336.062,494.786c-50.635,22.863-108.632,22.952-159.338,0.265l0.265-0.706l35.31-35.31h88.276   l35.31,35.31L336.062,494.786z"/>
</g>
<g>
	<path style="fill:#B0D3F0;" d="M120.422,259.708l18.891-50.37c1.395-3.725,5.102-6.056,9.066-5.694l82.37,7.486   c4.546,0.415,8.024,4.228,8.024,8.792v28.416c0,4.396-3.231,8.121-7.583,8.739l-101.261,14.468   c-4.829,0.689-9.295-2.666-9.984-7.495C119.742,262.594,119.901,261.094,120.422,259.708z"/>
	<path style="fill:#B0D3F0;" d="M392.444,259.708l-18.891-50.37c-1.395-3.725-5.102-6.056-9.066-5.694l-82.37,7.486   c-4.546,0.415-8.024,4.228-8.024,8.792v28.416c0,4.396,3.231,8.121,7.583,8.739l101.261,14.468   c4.829,0.689,9.295-2.666,9.984-7.495C393.132,262.594,392.965,261.094,392.444,259.708z"/>
</g>
<path style="fill:#2C2F38;" d="M380.023,344.276c-2.119,9.675-5.72,18.97-10.681,27.542  c-20.392,36.017-63.294,60.734-112.905,60.734s-92.513-24.717-112.905-60.734c-4.961-8.572-8.563-17.867-10.681-27.542H380.023z"/>
<path style="fill:#FFFFFF;" d="M380.023,344.276c-2.119,9.675-5.72,18.97-10.681,27.542  c-36.449,11.794-74.611,17.399-112.905,16.596c-38.294,0.803-76.456-4.802-112.905-16.596c-4.961-8.572-8.563-17.867-10.681-27.542  H380.023z"/>
<g>
</g>
<g>
</g>
<g>
</g>
<g>
</g>
<g>
</g>
<g>
</g>
<g>
</g>
<g>
</g>
<g>
</g>
<g>
</g>
<g>
</g>
<g>
</g>
<g>
</g>
<g>
</g>
<g>
</g>
</svg>
