<?xml version="1.0" encoding="iso-8859-1"?>
<!-- Generator: Adobe Illustrator 19.0.0, SVG Export Plug-In . SVG Version: 6.00 Build 0)  -->
<svg version="1.1" id="Layer_1" xmlns="http://www.w3.org/2000/svg" xmlns:xlink="http://www.w3.org/1999/xlink" x="0px" y="0px"
	 viewBox="0 0 297 297" style="enable-background:new 0 0 297 297;" xml:space="preserve">
<g>
	<g>
		<g>
			<g>
				<circle style="fill:#17AB93;" cx="148.5" cy="148.5" r="148.5"/>
			</g>
		</g>
	</g>
	<path style="fill:#0D6D5B;" d="M186.168,59.569c-1.551,13.962-7.289,25.769-13.668,36.931c-15,24-13,50-25,73c-11,20-38,25-61,31
		c-9.608,3.203-15.618,11.237-23.816,17.524l78.807,78.807c2.323,0.108,4.659,0.169,7.01,0.169
		c75.058,0,137.099-55.69,147.085-128.002L186.168,59.569z"/>
	<g>
		<path style="fill:#ECF0F1;" d="M128.8,116.788c22.645-10.051,31.514-27.726,43.477-54.328c2.762-6.142,11.293-7.085,15.056-1.5
			c2.09,3.102,3.586,7.541,3.586,13.895c0,21.087-13.179,45.469-13.179,45.469h52.447c11.416,0,19.703,10.86,16.689,21.871
			l-17.765,64.9c-2.058,7.52-8.892,12.734-16.689,12.734H136.08c-4.715,0-9.409-0.629-13.958-1.869l-22.141-6.038V142.5
			l8.328-10.177C113.813,125.597,120.856,120.313,128.8,116.788z"/>
	</g>
	<g>
		<path style="fill:#2D4F44;" d="M71.987,221.969H93.31c7.15,0,12.946-5.796,12.946-12.946v-77.675
			c0-7.15-5.796-12.946-12.946-12.946H71.987c-7.15,0-12.946,5.796-12.946,12.946v77.675
			C59.041,216.172,64.837,221.969,71.987,221.969z"/>
	</g>
</g>
<g>
</g>
<g>
</g>
<g>
</g>
<g>
</g>
<g>
</g>
<g>
</g>
<g>
</g>
<g>
</g>
<g>
</g>
<g>
</g>
<g>
</g>
<g>
</g>
<g>
</g>
<g>
</g>
<g>
</g>
</svg>
