<svg height="512pt" viewBox="0 0 512 512" width="512pt" xmlns="http://www.w3.org/2000/svg"><path d="m512 256c0 141.386719-114.613281 256-256 256s-256-114.613281-256-256 114.613281-256 256-256 256 114.613281 256 256zm0 0" fill="#303a59"/><g fill="#ffcf11"><path d="m389.363281 98.609375c0 33.457031-27.121093 60.574219-60.574219 60.574219-33.457031 0-60.574218-27.117188-60.574218-60.574219 0-33.453125 27.117187-60.574219 60.574218-60.574219 33.453126 0 60.574219 27.121094 60.574219 60.574219zm0 0"/><path d="m433.222656 144.113281c0 33.457031-27.121094 60.574219-60.574218 60.574219-33.457032 0-60.578126-27.117188-60.578126-60.574219 0-33.453125 27.121094-60.574219 60.578126-60.574219 33.453124 0 60.574218 27.121094 60.574218 60.574219zm0 0"/><path d="m199.929688 144.113281c0 33.457031-27.121094 60.574219-60.578126 60.574219-33.453124 0-60.574218-27.117188-60.574218-60.574219 0-33.453125 27.121094-60.574219 60.574218-60.574219 33.457032 0 60.578126 27.121094 60.578126 60.574219zm0 0"/><path d="m243.785156 98.609375c0 33.457031-27.117187 60.574219-60.574218 60.574219-33.453126 0-60.574219-27.117188-60.574219-60.574219 0-33.453125 27.121093-60.574219 60.574219-60.574219 33.457031 0 60.574218 27.121094 60.574218 60.574219zm0 0"/><path d="m316.574219 60.574219c0 33.457031-27.121094 60.574219-60.574219 60.574219s-60.574219-27.117188-60.574219-60.574219c0-33.453125 27.121094-60.574219 60.574219-60.574219s60.574219 27.121094 60.574219 60.574219zm0 0"/></g><path d="m166.34375 170.734375c0 26.433594-21.425781 47.863281-47.859375 47.863281s-47.863281-21.429687-47.863281-47.863281 21.429687-47.863281 47.863281-47.863281 47.859375 21.429687 47.859375 47.863281zm0 0" fill="#ffe854"/><path d="m232.421875 158.019531c0 33.457031-27.121094 60.578125-60.574219 60.578125-33.457031 0-60.578125-27.121094-60.578125-60.578125 0-33.453125 27.121094-60.574219 60.578125-60.574219 33.453125 0 60.574219 27.121094 60.574219 60.574219zm0 0" fill="#ffe854"/><path d="m343.945312 138.464844c0 44.253906-35.875 80.132812-80.128906 80.132812-44.257812 0-80.132812-35.878906-80.132812-80.132812s35.875-80.132813 80.132812-80.132813c44.253906 0 80.128906 35.878907 80.128906 80.132813zm0 0" fill="#ffe854"/><path d="m416.359375 158.019531c0 33.457031-27.121094 60.578125-60.574219 60.578125-33.457031 0-60.574218-27.121094-60.574218-60.578125 0-33.453125 27.117187-60.574219 60.574218-60.574219 33.453125 0 60.574219 27.121094 60.574219 60.574219zm0 0" fill="#ffe854"/><path d="m457.011719 170.734375c0 26.433594-21.429688 47.863281-47.863281 47.863281-26.433594 0-47.863282-21.429687-47.863282-47.863281s21.429688-47.863281 47.863282-47.863281c26.433593 0 47.863281 21.429687 47.863281 47.863281zm0 0" fill="#ffe854"/><path d="m186.386719 179.773438c0 19.691406-15.964844 35.65625-35.65625 35.65625-19.695313 0-35.660157-15.964844-35.660157-35.65625 0-19.695313 15.964844-35.660157 35.660157-35.660157 19.691406 0 35.65625 15.964844 35.65625 35.660157zm0 0" fill="#ffcf11"/><path d="m340.746094 170.734375c0 19.695313-15.964844 35.660156-35.65625 35.660156-19.695313 0-35.660156-15.964843-35.660156-35.660156 0-19.691406 15.964843-35.65625 35.660156-35.65625 19.691406 0 35.65625 15.964844 35.65625 35.65625zm0 0" fill="#ffcf11"/><path d="m425.023438 186.066406c0 19.695313-15.964844 35.660156-35.660157 35.660156-19.691406 0-35.65625-15.964843-35.65625-35.660156 0-19.691406 15.964844-35.65625 35.65625-35.65625 19.695313 0 35.660157 15.964844 35.660157 35.65625zm0 0" fill="#ffcf11"/><path d="m248.683594 159.1875c0 24.683594-20.007813 44.695312-44.695313 44.695312-24.683593 0-44.695312-20.011718-44.695312-44.695312 0-24.6875 20.011719-44.699219 44.695312-44.699219 24.6875 0 44.695313 20.011719 44.695313 44.699219zm0 0" fill="#ffcf11"/><path d="m394.480469 159.1875c0 24.683594-20.011719 44.695312-44.695313 44.695312-24.6875 0-44.695312-20.011718-44.695312-44.695312 0-24.6875 20.007812-44.699219 44.695312-44.699219 24.683594 0 44.695313 20.011719 44.695313 44.699219zm0 0" fill="#ffcf11"/><path d="m92.347656 452.855469c44.367188 36.925781 101.414063 59.144531 163.652344 59.144531s119.285156-22.21875 163.652344-59.144531l34.394531-248.058594h-396.09375zm0 0" fill="#ff3345"/><path d="m63.5 244.796875h385l5.546875-40h-396.09375zm0 0" fill="#e32828"/><path d="m293.304688 509.285156c19.722656-2.878906 38.722656-7.996094 56.71875-15.105468l23.886718-289.382813h-70.496094zm0 0" fill="#ebf0f3"/><path d="m208.585938 204.796875h-70.496094l23.890625 289.382813c17.992187 7.109374 36.992187 12.226562 56.714843 15.105468zm0 0" fill="#ebf0f3"/><path d="m302.085938 244.796875h68.519531l3.304687-40h-70.496094zm0 0" fill="#c7d9ff"/><path d="m208.585938 204.796875h-70.496094l3.304687 40h68.519531zm0 0" fill="#c7d9ff"/><path d="m461.621094 229.796875h-411.242188c-5.429687 0-9.828125-4.398437-9.828125-9.824219v-30.351562c0-5.425782 4.398438-9.824219 9.828125-9.824219h411.242188c5.429687 0 9.828125 4.398437 9.828125 9.824219v30.351562c0 5.425782-4.398438 9.824219-9.828125 9.824219zm0 0" fill="#ff3345"/></svg>