<?xml version="1.0" encoding="iso-8859-1"?>
<!-- Generator: Adobe Illustrator 19.0.0, SVG Export Plug-In . SVG Version: 6.00 Build 0)  -->
<svg xmlns="http://www.w3.org/2000/svg" xmlns:xlink="http://www.w3.org/1999/xlink" version="1.1" id="Capa_1" x="0px" y="0px" viewBox="0 0 512 512" style="enable-background:new 0 0 512 512;" xml:space="preserve">
<path style="fill:#F0C419;" d="M256,498.78c-112.084-0.124-202.911-90.951-203.034-203.034c0.583-27.357,4.37-54.554,11.29-81.037  c3.407-14.071,7.636-28.575,12.57-43.105l0.459-1.315c1.121-3.319,2.278-6.691,3.558-9.993c3.866-10.717,8.13-21.433,12.579-31.656  c0.918-2.11,1.942-4.334,2.957-6.462l4.378-9.145l8.457,5.597c7.556,4.996,14.866,9.525,22.263,13.806h1.192l1.951,1.854  l0.909,0.689c3.354,2.101,7.265,3.125,11.22,2.948c13.63-1.536,26.933-5.208,39.415-10.884  c22.078-9.763,45.745-15.413,69.844-16.675c24.099,1.262,47.775,6.912,69.844,16.675c12.482,5.676,25.785,9.348,39.415,10.884  c4.034,0.168,8.024-0.909,11.423-3.107l0.45-0.3l2.101-2.013l1.192-0.026c7.804-4.502,15.175-9.039,22.466-13.859l8.678-5.738  l4.237,9.498c5.429,12.156,10.284,24.143,14.46,35.699l1.015,2.586c1.068,2.86,2.083,5.782,3.09,8.66l0.777,2.207  c4.961,14.592,9.19,29.105,12.606,43.211c6.921,26.465,10.708,53.654,11.282,81.002C458.911,407.829,368.084,498.656,256,498.78z"/>
<path style="fill:#7F5B53;" d="M459.034,83.883h-33.457c-0.971,2.119-1.942,4.237-2.825,6.444c0.636-3.319,0.962-6.682,0.971-10.063  c0-36.988-41.754-67.001-93.219-67.001c-0.971-0.035-1.951,0.026-2.913,0.177c-26.333-0.23-51.827,9.26-71.592,26.659  c-20.568-18.008-47.175-27.595-74.505-26.836c-51.465,0-93.219,30.014-93.219,67.001c-0.009,3.469,0.353,6.93,1.059,10.328  c-0.883-2.295-1.854-4.502-2.913-6.709H52.966C23.72,83.909,0.026,107.603,0,136.849v211.862  c0.026,29.246,23.72,52.939,52.966,52.966h33.457c0.441-1.059,0.971-2.119,1.412-3.178c3.566-8.139,6.656-16.481,9.269-24.982  c12.262-42.478,18.211-86.528,17.655-130.737c0-12.006-0.353-23.834-1.148-35.222l1.148-0.088c0,0,79.448,0,141.241-52.966  c61.793,52.966,141.241,52.966,141.241,52.966l1.148,0.088c-0.794,11.388-1.148,23.217-1.148,35.222  c-0.556,44.209,5.394,88.258,17.655,130.737c2.613,8.501,5.703,16.843,9.269,24.982c0.441,1.059,0.971,2.119,1.412,3.178h33.457  c29.246-0.026,52.939-23.72,52.966-52.966V136.849C511.974,107.612,488.28,83.909,459.034,83.883z"/>
<g>
	<path style="fill:#804537;" d="M114.759,242.78c0.556,44.209-5.394,88.258-17.655,130.737c-2.613,8.501-5.703,16.843-9.269,24.982   c-0.441,1.059-0.971,2.119-1.412,3.178H52.966C23.72,401.65,0.026,377.956,0,348.711V136.849   c0.026-29.246,23.72-52.939,52.966-52.966h33.457c1.059,2.207,2.03,4.414,2.913,6.709l0.088,0.088v0.177   c0.971,2.207,1.854,4.502,2.737,6.886c0.883,2.119,1.677,4.414,2.472,6.709c0.883,2.472,1.677,5.032,2.472,7.592   c9.234,31.082,14.777,63.144,16.508,95.514C114.406,218.945,114.759,230.774,114.759,242.78z"/>
	<path style="fill:#804537;" d="M512,136.849v211.862c-0.026,29.246-23.72,52.939-52.966,52.966h-33.457   c-0.441-1.059-0.971-2.119-1.412-3.178c-3.566-8.139-6.656-16.481-9.269-24.982c-12.262-42.478-18.211-86.528-17.655-130.737   c0-12.006,0.353-23.834,1.148-35.222c1.73-32.38,7.274-64.433,16.508-95.514c0.794-2.56,1.589-5.12,2.472-7.592   c0.794-2.295,1.589-4.502,2.472-6.709c0.883-2.383,1.766-4.679,2.737-6.886V90.68c0.088-0.088,0.088-0.265,0.177-0.353   c0.883-2.207,1.854-4.326,2.825-6.444h33.457C488.28,83.909,511.974,107.612,512,136.849z"/>
</g>
<g>
	<path style="fill:#DF4D60;" d="M150.069,401.676c-1.156-0.018-2.295-0.256-3.354-0.706c-1.068-0.45-2.057-1.077-2.913-1.854   c-0.777-0.883-1.43-1.863-1.951-2.913c-0.424-1.068-0.627-2.207-0.609-3.354c0.026-2.339,0.945-4.573,2.56-6.268l1.315-1.059   c0.494-0.335,1.033-0.6,1.598-0.794c0.503-0.256,1.033-0.433,1.589-0.538c1.13-0.256,2.304-0.256,3.443,0   c0.583,0.088,1.156,0.265,1.677,0.538c0.538,0.177,1.05,0.441,1.501,0.794c0.53,0.353,0.971,0.706,1.412,1.059   c1.615,1.695,2.525,3.928,2.56,6.268c-0.018,1.156-0.256,2.295-0.706,3.354c-0.45,1.068-1.077,2.057-1.854,2.913   C154.677,400.776,152.417,401.703,150.069,401.676z"/>
	<path style="fill:#DF4D60;" d="M132.414,384.021c-1.156-0.018-2.295-0.256-3.354-0.706c-1.068-0.45-2.057-1.077-2.913-1.854   c-1.66-1.66-2.586-3.919-2.56-6.268c0.026-2.339,0.945-4.573,2.56-6.268c2.56-2.472,6.329-3.196,9.622-1.854   c1.068,0.45,2.057,1.077,2.913,1.854c1.615,1.695,2.525,3.928,2.56,6.268c0.044,4.829-3.831,8.783-8.66,8.828   C132.529,384.021,132.467,384.021,132.414,384.021z"/>
	<path style="fill:#DF4D60;" d="M361.931,401.676c-1.156-0.018-2.295-0.256-3.354-0.706c-1.068-0.45-2.057-1.077-2.913-1.854   c-0.777-0.856-1.404-1.845-1.854-2.913c-0.45-1.059-0.689-2.198-0.706-3.354c0.026-2.339,0.945-4.573,2.56-6.268l1.315-1.059   c0.494-0.335,1.033-0.6,1.598-0.794c0.521-0.265,1.086-0.45,1.668-0.538c2.878-0.574,5.862,0.318,7.945,2.392   c1.615,1.695,2.525,3.928,2.56,6.268c0.018,2.348-0.9,4.608-2.56,6.268c-0.856,0.777-1.845,1.404-2.913,1.854   C364.226,401.429,363.087,401.667,361.931,401.676z"/>
	<path style="fill:#DF4D60;" d="M379.586,384.021c-1.156-0.018-2.295-0.256-3.354-0.706c-1.068-0.45-2.057-1.077-2.913-1.854   c-3.416-3.478-3.416-9.057,0-12.535c0.847-0.794,1.836-1.43,2.913-1.854c2.145-0.892,4.564-0.892,6.709,0   c1.077,0.424,2.066,1.059,2.913,1.854c1.615,1.695,2.525,3.928,2.56,6.268c0.018,2.348-0.9,4.608-2.56,6.268   c-0.856,0.777-1.845,1.404-2.913,1.854C381.881,383.774,380.743,384.012,379.586,384.021z"/>
</g>
<path style="fill:#2980BA;" d="M291.31,302.842c0-2.127,0.106-4.255,0.318-6.374c0.212-2.083,1.156-4.025,2.675-5.473  c9.101-9.295,20.427-16.119,32.909-19.827c3.663-0.962,7.539,0.521,9.613,3.69c5.111,8.422,7.698,18.132,7.459,27.975  c0,22.643-11.388,39.724-26.483,39.724C302.707,342.558,291.31,325.494,291.31,302.842z"/>
<path style="fill:#D1D4D1;" d="M308.983,301.457c-0.009,0.459-0.018,0.918-0.018,1.386c0,14.336,6.268,22.069,8.828,22.069  c2.56,0,8.828-7.733,8.828-22.069c0.018-4.105-0.574-8.192-1.757-12.129C319.064,293.485,313.715,297.105,308.983,301.457z"/>
<path style="fill:#2C2F38;" d="M284.522,301.607c2.86-3.425,5.914-6.762,9.631-10.478c0.035-0.044,0.097-0.053,0.132-0.088v-0.009  c9.022-9.181,20.206-15.951,32.53-19.686c0.115-0.035,0.194-0.124,0.309-0.15c17.611-4.793,36.449-0.194,49.867,12.164  c3.469,3.425,3.505,9.013,0.079,12.482c-3.425,3.469-9.013,3.505-12.482,0.079c-0.026-0.026-0.053-0.053-0.079-0.079  c-8.907-7.883-21.186-10.752-32.671-7.627c-0.062,0.018-0.106,0.062-0.159,0.079c-9.56,2.957-18.22,8.289-25.176,15.492  l-0.097,0.062c-3.213,3.231-5.879,6.126-8.324,9.057c-3.134,3.734-8.704,4.228-12.438,1.095  C281.935,310.884,281.432,305.349,284.522,301.607L284.522,301.607z"/>
<path style="fill:#2980BA;" d="M220.69,302.842c0-2.127-0.106-4.255-0.318-6.374c-0.212-2.083-1.156-4.025-2.675-5.473  c-9.101-9.295-20.427-16.119-32.909-19.827c-3.663-0.962-7.539,0.521-9.613,3.69c-5.111,8.422-7.698,18.132-7.459,27.975  c0,22.643,11.388,39.724,26.483,39.724S220.69,325.494,220.69,302.842z"/>
<path style="fill:#D1D4D1;" d="M203.017,301.457c0.009,0.459,0.018,0.918,0.018,1.386c0,14.336-6.268,22.069-8.828,22.069  s-8.828-7.733-8.828-22.069c-0.018-4.105,0.574-8.192,1.757-12.129C192.927,293.485,198.285,297.105,203.017,301.457z"/>
<g>
	<path style="fill:#2C2F38;" d="M227.469,301.607c-2.86-3.425-5.914-6.762-9.631-10.478c-0.035-0.044-0.097-0.053-0.132-0.088   v-0.009c-9.022-9.181-20.206-15.951-32.53-19.686c-0.115-0.035-0.194-0.124-0.309-0.15c-17.611-4.793-36.449-0.194-49.867,12.164   c-3.443,3.443-3.443,9.039,0,12.482c3.443,3.443,9.039,3.443,12.482,0c8.907-7.883,21.186-10.752,32.671-7.627   c0.062,0.018,0.106,0.062,0.159,0.079c9.56,2.957,18.22,8.289,25.176,15.492l0.097,0.062c3.213,3.231,5.879,6.126,8.316,9.057   c3.107,3.761,8.678,4.281,12.429,1.174c3.761-3.107,4.281-8.678,1.174-12.429C227.496,301.633,227.487,301.624,227.469,301.607   L227.469,301.607z"/>
	<path style="fill:#2C2F38;" d="M282.483,406.09c0,17.064,0,30.897-26.483,30.897s-26.483-13.833-26.483-30.897   c-1.121-15.81,10.681-29.59,26.483-30.897C271.801,376.509,283.604,390.28,282.483,406.09z"/>
</g>
<g>
</g>
<g>
</g>
<g>
</g>
<g>
</g>
<g>
</g>
<g>
</g>
<g>
</g>
<g>
</g>
<g>
</g>
<g>
</g>
<g>
</g>
<g>
</g>
<g>
</g>
<g>
</g>
<g>
</g>
</svg>
