<svg className='like-svg' width="36" height="32" viewBox="0 0 36 32" fill="none" xmlns="http://www.w3.org/2000/svg">
    <path d="M32.8719 3.18856C31.0201 1.33651 28.5685 0.324252 25.952 0.324252C23.3355 0.324252 20.8765 1.34401 19.0247 3.19606L18.0575 4.16332L17.0754 3.18106C15.2236 1.32901 12.7571 0.301758 10.1406 0.301758C7.53156 0.301758 5.0725 1.32151 3.22821 3.16606C1.37641 5.01812 0.356802 7.47752 0.364299 10.0944C0.364299 12.7113 1.39141 15.1632 3.2432 17.0152L17.3228 31.0968C17.5178 31.2918 17.7802 31.3967 18.0351 31.3967C18.29 31.3967 18.5524 31.2993 18.7473 31.1043L32.8569 17.0452C34.7087 15.1932 35.7283 12.7337 35.7283 10.1169C35.7358 7.50001 34.7237 5.04061 32.8719 3.18856ZM31.4324 15.6131L18.0351 28.9598L4.66766 15.5906C3.19822 14.1209 2.38853 12.1714 2.38853 10.0944C2.38853 8.01739 3.19072 6.06786 4.66016 4.60572C6.1221 3.14357 8.07136 2.33377 10.1406 2.33377C12.2173 2.33377 14.174 3.14357 15.6435 4.61321L17.3378 6.3078C17.7352 6.70521 18.3724 6.70521 18.7698 6.3078L20.4491 4.62821C21.9186 3.15857 23.8753 2.34876 25.9445 2.34876C28.0138 2.34876 29.963 3.15857 31.4324 4.62071C32.9019 6.09036 33.7041 8.03988 33.7041 10.1169C33.7116 12.1939 32.9019 14.1434 31.4324 15.6131Z" fill="black" />
</svg>