<svg width="32" height="31" viewBox="0 0 32 31" fill="none" xmlns="http://www.w3.org/2000/svg">
    <path d="M15.7718 0.0078125C7.23907 0.0078125 0.296875 6.95096 0.296875 15.4849C0.296875 24.0188 7.23907 30.9619 15.7718 30.9619C24.3045 30.9619 31.2467 24.0188 31.2467 15.4849C31.2467 6.95096 24.3045 0.0078125 15.7718 0.0078125ZM15.7718 29.6722C7.94995 29.6722 1.58643 23.3078 1.58643 15.4849C1.58643 7.66194 7.94995 1.29755 15.7718 1.29755C23.5936 1.29755 29.9571 7.66194 29.9571 15.4849C29.9571 23.3078 23.5936 29.6722 15.7718 29.6722Z" fill="black" />
    <path d="M24.1554 14.8429H16.418V7.10437C16.418 6.74791 16.1296 6.45947 15.7732 6.45947C15.4168 6.45947 15.1284 6.74791 15.1284 7.10437V14.8429H7.3909C7.0345 14.8429 6.74609 15.1313 6.74609 15.4878C6.74609 15.8442 7.0345 16.1327 7.3909 16.1327H15.1284V23.8712C15.1284 24.2277 15.4168 24.5161 15.7732 24.5161C16.1296 24.5161 16.418 24.2277 16.418 23.8712V16.1327H24.1554C24.5118 16.1327 24.8002 15.8442 24.8002 15.4878C24.8002 15.1313 24.5118 14.8429 24.1554 14.8429Z" fill="black" />
</svg>