 <svg  width="14" height="14" viewBox="0 0 14 14" fillOpacity="none" xmlns="http://www.w3.org/2000/svg">
    <path d="M5.82113 0.646973C3.09403 0.646973 0.882812 2.85819 0.882812 5.58531C0.882812 8.31244 3.09403 10.5237 5.82115 10.5237C6.86984 10.5237 7.84238 10.1966 8.64182 9.6394L8.6424 9.63882L12.3049 13.3013C12.3729 13.3693 12.4809 13.371 12.5507 13.3013L13.5378 12.3142C13.6057 12.2463 13.6022 12.1336 13.5372 12.0685L9.87522 8.40656C10.4324 7.60654 10.7595 6.63398 10.7595 5.58531C10.7595 2.85819 8.54826 0.646973 5.82113 0.646973ZM5.82113 9.36169C3.73541 9.36169 2.04476 7.67104 2.04476 5.58531C2.04476 3.49959 3.73543 1.80894 5.82113 1.80894C7.90684 1.80894 9.59751 3.49959 9.59751 5.58531C9.59751 7.67104 7.90686 9.36169 5.82113 9.36169Z" fill="black" fill-opacity="0.7" />
</svg>